<?xml version="1.0" encoding="utf-8"?>
<!-- Generator: Adobe Illustrator 21.1.0, SVG Export Plug-In . SVG Version: 6.00 Build 0)  -->
<svg version="1.1" id="Layer_1" xmlns="http://www.w3.org/2000/svg" xmlns:xlink="http://www.w3.org/1999/xlink" x="0px" y="0px"
	 viewBox="0 0 1200 1200" style="enable-background:new 0 0 1200 1200;" xml:space="preserve">
<style type="text/css">
	.st0{fill:#231F20;}
	.st1{fill:#FFFFFF;}
	.st2{fill:none;stroke:#FFFFFF;stroke-width:2;stroke-linecap:round;stroke-linejoin:round;stroke-miterlimit:10;}
</style>
<g>
	<g>
		<rect x="135.9" y="363.2" class="st0" width="640" height="433.1"/>
		<path class="st1" d="M776.8,797H135.1V362.4h641.6V797z M136.7,795.4h638.4V364H136.7V795.4z"/>
	</g>
	<g>
		<path class="st1" d="M760.4,787.3H151.5c-0.9,0-1.6-0.7-1.6-1.6V373.7c0-0.9,0.7-1.6,1.6-1.6h608.8c0.9,0,1.6,0.7,1.6,1.6v411.9
			C762,786.6,761.3,787.3,760.4,787.3z M153.1,784.1h605.7V375.3H153.1V784.1z"/>
	</g>
</g>
<g>
	<path class="st1" d="M1000.4,561.6c-0.8,0-1.4-0.6-1.6-1.3c-2.1-13.5-9.7-25.8-20.9-33.8c-0.7-0.5-0.9-1.5-0.4-2.2
		c0.5-0.7,1.5-0.9,2.2-0.4c11.8,8.4,19.9,21.5,22.2,35.9c0.1,0.9-0.5,1.7-1.3,1.8C1000.5,561.5,1000.5,561.6,1000.4,561.6z"/>
</g>
<g>
	<path class="st1" d="M1010.9,591.3C1010.8,591.3,1010.8,591.3,1010.9,591.3c-1-0.1-1.6-0.8-1.6-1.7c0.3-4.9-0.7-9.7-3-14
		c-0.4-0.8-0.1-1.7,0.7-2.1c0.8-0.4,1.7-0.1,2.1,0.7c2.5,4.8,3.7,10.3,3.4,15.7C1012.4,590.6,1011.7,591.3,1010.9,591.3z"/>
</g>
<g>
	<g>
		<g>
			<g>
				<g>
					<path class="st0" d="M934.4,429.2c-0.4-2.1-1.4-4.2-2.7-6c-0.4-0.5-0.7-1-1.1-1.4c-0.7-0.8-1.5-1.5-2.3-2.2
						c-2-1.5-4.3-2.5-6.8-2.8c-9.7-1.3-15.7,5.4-17,12.2c-0.2,1.1-0.3,2.1-0.3,3.2c0,3.5,1.1,7.1,3.6,9.9c0.7,0.8,1.5,1.6,2.5,2.2
						c1.4,1,3.2,1.8,5.2,2.4c0.2,0,0.4,0.1,0.5,0.1h0c0.9,0.2,1.7,0.3,2.6,0.3c0.1,0,0.3,0,0.4,0c1.4,0,2.8-0.2,4.2-0.6
						c1.4-0.4,2.9-1,4.2-1.9c0.9-0.5,1.7-1.2,2.4-1.8l0,0l0,0c2.4-2.2,4-4.9,4.6-7.9c0.2-0.8,0.2-1.6,0.3-2.4
						C934.8,431.5,934.7,430.3,934.4,429.2z M927.5,440.7c-0.5,0.5-1.1,0.9-1.8,1.3c-2.1,1.3-4.4,2-6.7,2c-0.9,0-1.9-0.1-2.8-0.4
						c-7.5-2-9.8-8.5-8.7-14.1c1-5.1,4.9-9.8,11.5-9.8c0.6,0,1.3,0,2,0.1c3.1,0.4,6,2.3,8,5.1c2,2.8,2.8,6.2,2.2,9.3
						c-0.1,0.7-0.3,1.3-0.6,1.9l0,0C930.1,437.9,929,439.5,927.5,440.7z"/>
				</g>
				<g>
					<path class="st1" d="M929.2,425c-2-2.8-5-4.7-8-5.1c-0.7-0.1-1.4-0.1-2-0.1c-6.6,0-10.5,4.7-11.5,9.8
						c-1.1,5.6,1.1,12.1,8.7,14.1c0.9,0.2,1.8,0.4,2.8,0.4c2.2,0,4.6-0.7,6.7-2c0.6-0.4,1.2-0.8,1.8-1.3l3.1-4.2
						c0.1-0.1,0.1-0.2,0.2-0.2l0,0c0.3-0.6,0.5-1.3,0.6-1.9C932,431.2,931.2,427.9,929.2,425z M921.5,434.8
						c-1.8,0.1-3.3-1.1-3.4-2.7c-0.1-1.6,1.2-3,3-3.1c1.8-0.1,3.2,1.1,3.3,2.7C924.6,433.3,923.2,434.7,921.5,434.8z"/>
				</g>
			</g>
			<g>
				<g>
					<path class="st0" d="M967.2,429c-2.5-3.6-6.3-5.9-10.2-6.4c-6.8-0.9-12.7,2.2-15.6,8c-0.4-0.7-1-1.3-1.7-1.7
						c-1.4-0.7-3.1-0.7-5.3,0.3c-0.5,0.2-1.1,0.5-1.7,0.9c-0.8,0.4-1,1.4-0.6,2.2c0.4,0.8,1.4,1,2.2,0.6c0.2-0.1,0.3-0.2,0.5-0.2
						c2.2-1.2,3.1-1,3.4-0.8c1.1,0.6,1.3,3.7,1.4,5.8c0.1,1.1,0.1,2.1,0.3,3c1,5.8,5.2,10.4,11.1,12c1.2,0.3,2.4,0.5,3.6,0.5
						c2.8,0,5.8-0.8,8.4-2.5c3.7-2.3,6.3-5.9,7.1-9.8C970.7,436.9,969.7,432.6,967.2,429z M966.8,440.2c-0.6,3.1-2.7,5.9-5.6,7.7
						c-3,1.8-6.4,2.4-9.4,1.6c-4.7-1.3-8-4.8-8.8-9.4c-0.1-0.7-0.2-1.7-0.2-2.7c0-0.9-0.1-1.9-0.2-2.8c0.5-0.1,0.9-0.5,1.1-1
						c1.5-4.4,5.8-8.8,13-7.8c3.1,0.4,6,2.3,8,5.1C966.6,433.7,967.4,437.1,966.8,440.2z"/>
				</g>
				<g>
					<path class="st1" d="M964.6,430.9c-2-2.8-5-4.7-8-5.1c-7.2-1-11.4,3.4-13,7.8c-0.2,0.5-0.6,0.9-1.1,1c0.1,0.9,0.2,1.9,0.2,2.8
						c0.1,1,0.1,2,0.2,2.7c0.8,4.6,4.1,8.1,8.8,9.4c3,0.8,6.4,0.2,9.4-1.6c3-1.8,5-4.6,5.6-7.7C967.4,437.1,966.6,433.7,964.6,430.9
						z M953.2,439.8c-1.8,0.1-3.3-1.1-3.4-2.7c-0.1-1.6,1.3-3,3-3.1c1.8-0.1,3.2,1.1,3.3,2.7C956.3,438.3,954.9,439.7,953.2,439.8z"
						/>
				</g>
			</g>
			<g>
				<g>
					<path class="st0" d="M924.5,431.7c0.1,1.6-1.2,3-3,3.1c-1.8,0.1-3.3-1.1-3.4-2.7c-0.1-1.6,1.2-3,3-3.1
						C922.9,428.8,924.4,430.1,924.5,431.7z"/>
				</g>
			</g>
			<g>
				<g>
					<path class="st0" d="M956.1,436.7c0.1,1.6-1.2,3-3,3.1c-1.8,0.1-3.3-1.1-3.4-2.7c-0.1-1.6,1.3-3,3-3.1
						C954.6,433.9,956,435.1,956.1,436.7z"/>
				</g>
			</g>
			<g>
				<g>
					<path class="st0" d="M988.9,449.8c0.3,3.9-2.5,7.1-5.5,8.6c-2.8,1.4-6,1.7-8.8,1.8c-0.2,0-0.3,0-0.5,0H974
						c-0.8,0-1.4-0.6-1.6-1.4c0,0,0-0.1,0-0.1c0-0.9,0.6-1.6,1.5-1.7c2.8-0.2,5.7-0.4,8.1-1.5c1.9-1,3.9-3.1,3.8-5.5
						c-0.1-1.7-1.5-3.2-3.2-3.6c-1.8-0.4-4.1-0.1-4.8,1.2c-0.4,0.7-1.3,1-2,0.7c-0.8-0.3-1.1-1.2-0.8-2c4-11.4-1.3-25.3-11.8-31.1
						c-10.5-5.7-24.9-2.8-32.4,6.5c-0.1,0.1-0.1,0.1-0.2,0.2c-0.5,0.7-1.5,0.8-2.2,0.3c-0.7-0.5-0.8-1.5-0.3-2.2
						c0.1-0.1,0.2-0.3,0.4-0.4c0.8-1,1.7-2,2.7-2.8c0.6-0.6,1.2-1.1,1.9-1.6c0.1-0.1,0.2-0.2,0.3-0.3c1-0.7,2-1.4,3-1.9
						c8.6-4.8,19.7-5.3,28.4-0.6c6.7,3.7,11.5,10.3,13.6,17.6c0.5,1.7,0.8,3.5,1,5.3c0,0,0,0.1,0,0.1c0.1,1.3,0.2,2.6,0.1,3.9
						c0,1.4-0.2,2.7-0.4,4c1.4-0.3,2.9-0.3,4.3,0C986.3,444,988.7,446.7,988.9,449.8z"/>
				</g>
			</g>
			<g>
				<g>
					<path class="st0" d="M937.8,448.8c-0.6,1.2-1.2,2.6-2,3.9h0c-0.5,0.9-1.1,1.8-1.8,2.5c-0.3,0.4-0.7,0.7-1,1
						c-1.3,1.1-2.7,1.9-4.2,2.2c-0.4,0.1-0.9,0.2-1.3,0.2c-0.1,0-0.3,0-0.4,0c-0.2,0-0.4,0-0.6,0c-0.3,0-0.7-0.1-1-0.2
						c-0.4-0.1-0.8-0.2-1.2-0.4c-2.3-1-3.9-3.2-3.9-5.6c0-0.5,0.1-1,0.2-1.4c0.3-1.1,0.9-2.1,1.4-2.9c0.2-0.3,0.4-0.5,0.6-0.8
						l0.6-0.8l4.3-5.9l3.1-4.2c0.1-0.1,0.1-0.2,0.2-0.2l0,0c0.5-0.5,1.4-0.6,2-0.1c0.7,0.5,0.9,1.5,0.4,2.2l-3.2,4.5l0,0l0,0
						l-4.6,6.4c-0.9,1.2-1.6,2.2-1.6,3.3c0,1.5,1.6,2.8,3.1,2.9c1.6,0.1,3.5-0.7,4.9-2.3c1.4-1.6,2.4-3.6,3.3-5.6
						c0.4-0.8,1.3-1.1,2.1-0.8C937.8,447.1,938.1,448,937.8,448.8z"/>
				</g>
			</g>
			<g>
				<g>
					<path class="st0" d="M931.3,416.8c-0.4,0-0.8-0.2-1.2-0.5l-6.2-6.5c-0.6-0.6-0.6-1.6,0.1-2.3c0.6-0.6,1.6-0.6,2.3,0.1l6.2,6.5
						c0.6,0.6,0.6,1.6-0.1,2.3C932.1,416.7,931.7,416.8,931.3,416.8z"/>
				</g>
			</g>
			<g>
				<g>
					<path class="st0" d="M934.6,415.9c-0.6,0-1.2-0.4-1.5-1c-1.8-4.1-2.5-8.5-2-12.9c0.1-0.9,0.8-1.5,1.7-1.4
						c0.9,0.1,1.5,0.8,1.5,1.7c-0.1,1.2,0.4,3.5,0.9,5.6c0.6,2.5,1.1,4.9,1,6.5c0,0.7-0.6,1.3-1.3,1.5
						C934.8,415.9,934.7,415.9,934.6,415.9z"/>
				</g>
			</g>
			<g>
				<g>
					<path class="st1" d="M924.3,458.1c-0.6,2.9-2.8,5.5-5.9,7c-2.8,1.3-6.3,1.7-10.4,1.2c-7.7-1-14.3-4.6-18.2-10.1
						c-3.4-4.8-4.3-10.9-2.8-16c2,4.5,5.9,8.1,10.6,9.5c3.8,1.1,7.8,0.8,11.6,0.6c4.1-0.3,8-0.6,11.5,0.9c-0.1,0.4-0.2,0.9-0.2,1.4
						C920.4,454.8,922,457.1,924.3,458.1z"/>
				</g>
				<g>
					<path class="st0" d="M927.5,458.1c0,0.2,0,0.3-0.1,0.5c-0.4,2-1.3,3.9-2.7,5.5c-1.3,1.6-3,2.9-5,3.8c-2.5,1.1-5.3,1.7-8.4,1.7
						c-1.2,0-2.4-0.1-3.7-0.2c-4.1-0.5-7.8-1.7-11.2-3.5v0c-0.8-0.4-1.5-0.8-2.3-1.3c-2.7-1.8-5.1-4-6.9-6.6c-5-7-5.4-16.5-1.2-23.2
						c0.4-0.6,1-0.8,1.7-0.7c0.7,0.1,1.1,0.7,1.2,1.4c0.7,5.1,4.6,9.7,9.6,11.2c2.3,0.7,4.8,0.7,7.3,0.6c1,0,2.1-0.1,3.1-0.2h0.1
						c2.3-0.2,4.7-0.4,7.1-0.2h0c0.9,0,1.7,0.2,2.6,0.3c1.1,0.2,2.2,0.5,3.3,1c0,0,0.1,0,0.1,0c0.7,0.4,1.1,1.3,0.7,2
						c-0.3,0.8-1.3,1.2-2.1,0.9c0,0,0,0-0.1,0c-3.5-1.5-7.4-1.2-11.5-0.9c-3.8,0.3-7.8,0.6-11.6-0.6c-4.7-1.4-8.6-5-10.6-9.5
						c-1.6,5.1-0.6,11.2,2.8,16c3.9,5.5,10.5,9.2,18.2,10.1c4.1,0.5,7.6,0.1,10.4-1.2c3.1-1.4,5.4-4.1,5.9-7c0-0.1,0.1-0.3,0.1-0.4
						c0.1-0.9,0.9-1.5,1.8-1.4c0.6,0.1,1.1,0.5,1.3,1C927.5,457.6,927.6,457.8,927.5,458.1z"/>
				</g>
			</g>
			<g>
				<g>
					<path class="st0" d="M977.4,467.9c-4.2,4.4-9.5,7.7-15.3,9.4c-1.1,0.3-2.1,0.6-3.2,0.8c-1.8,0.4-3.7,0.6-5.6,0.7
						c-0.4,0-0.8,0-1.2,0c-8.6,0-17.2-3.3-23.6-9.1c-1.3-1.2-2.9-2.8-3.7-5c-0.1-0.2-0.1-0.3-0.1-0.5c-0.6-2-0.3-4.1,0.8-5.7
						c0.2-0.3,0.4-0.5,0.6-0.7c0.4-0.4,0.9-0.5,1.4-0.4c0.3,0,0.6,0.2,0.9,0.4c0.2,0.2,0.3,0.4,0.4,0.7c0.2,0.5,0,1.1-0.4,1.6
						c-0.7,0.8-1,2.2-0.5,3.5c0.6,1.5,1.8,2.8,2.9,3.8c6.1,5.5,14.3,8.5,22.5,8.3c6-0.2,11.9-2.2,16.8-5.6c-0.5,0.1-1,0.2-1.4,0.2
						c-0.1,0-0.3,0-0.4,0c-4.5,0.5-9,0-13.5-2.5c-2.5-1.5-4.5-3.6-6.5-5.6c-1.1-1.2-2.2-2.3-3.4-3.3c-2.8-2.5-7.1-4.1-10-2.3
						c-0.7,0.4-1.5,0.3-2-0.3c-0.1-0.1-0.2-0.2-0.2-0.3c-0.5-0.7-0.2-1.7,0.5-2.2c0.8-0.5,1.7-0.8,2.5-1.1h0c4-0.9,8.4,1.2,11.2,3.6
						c1.3,1.1,2.5,2.3,3.6,3.5c1.9,2,3.6,3.8,5.8,5c3.5,2.1,7.2,2.5,10.9,2.2c1.4-0.1,2.7-0.4,4.1-0.7c1.5-0.3,3-0.7,4.5-1.2
						c0.7-0.2,1.4,0.1,1.8,0.7C978,466.5,977.9,467.3,977.4,467.9z"/>
				</g>
			</g>
			<g>
				<g>
					<path class="st0" d="M989.7,440.6c-2,0-3.8-0.3-5.7-0.7c-1.6-0.3-3.3-0.6-5-0.7c-0.6,0-1.2-0.4-1.4-1.1c-0.2-0.6,0-1.3,0.4-1.7
						c3.7-3.4,8.2-5.9,12.9-7.5c0.8-0.3,1.7,0.2,2,1c0.3,0.8-0.2,1.7-1,2c-3.2,1-6.2,2.5-8.9,4.5c0.5,0.1,1,0.2,1.6,0.3
						c3.1,0.6,5.8,1,8.9,0c0.8-0.3,1.7,0.2,2,1c0.3,0.8-0.2,1.7-1,2C992.8,440.4,991.2,440.6,989.7,440.6z"/>
				</g>
			</g>
			<g>
				<g>
					<path class="st0" d="M978.3,435.6c-0.1,0-0.3,0-0.4-0.1c-0.8-0.2-1.4-1.1-1.1-1.9c0.8-3,2.5-5.8,4.8-7.9
						c0.6-0.6,1.7-0.5,2.2,0.1c0.6,0.6,0.5,1.7-0.1,2.2c-1.9,1.7-3.2,4-3.9,6.4C979.7,435.1,979,435.6,978.3,435.6z"/>
				</g>
			</g>
			<g>
				<g>
					<path class="st0" d="M955.9,504.2c-0.6,0.7-1.2,1.4-1.9,2.1c0,0-0.1,0.1-0.1,0.1c-0.7,0.7-1.5,1.3-2.3,1.9
						c-0.4,0.2-0.7,0.5-1.1,0.7c-4.3,2.7-9.8,4.1-16.5,4.3c-0.4,0-0.9,0-1.3,0c-0.6,0-1.1,0-1.7,0c-1.3,0-2.7-0.1-4.1-0.2
						c-4.8-0.4-9.5-1.2-14.2-2.3c-1.1-0.3-2.3-0.6-3.4-0.9c-3.6-1-7.1-2.2-10.6-3.5c-1.3-0.5-2.7-1.1-4.1-1.8
						c-0.9-0.5-1.9-1-2.8-1.5c-1.5-0.9-3-2-4.4-3.2c-0.8-0.7-1.5-1.5-2.2-2.4c-1-1.3-1.8-2.7-2.4-4.3c-0.4-1-0.7-2.1-0.8-3.2
						c-0.2-1-0.2-2.1-0.2-3.2c0.1-3.1,0.9-6.3,2.5-9.4c2.4-4.7,5.9-8.5,9.3-12.3c0.1-0.2,0.3-0.3,0.5-0.4c0.6-0.3,1.3-0.2,1.8,0.3
						c0.3,0.3,0.5,0.7,0.5,1.1v0c0,0.4-0.1,0.8-0.4,1.2c-3.3,3.6-6.6,7.3-8.8,11.6c-2.3,4.6-2.8,9.4-1.4,13.3c1.3,3.4,4,6.2,8.3,8.7
						c0.3,0.2,0.6,0.4,0.9,0.5c1.5,0.8,3.1,1.5,4.9,2.2c8.8,3.5,17.9,5.7,27.3,6.5c10.8,1,18.9-0.8,24-5.4c0,0,0,0,0,0
						c0.2-0.2,0.4-0.3,0.5-0.5c0,0,0,0,0,0c0,0,0,0,0,0c6.3-6.2,7.1-16.1,7-25.9v-1.4c0-0.9,0.7-1.6,1.6-1.6c0,0,0,0,0,0
						c0.9,0,1.6,0.7,1.6,1.6v0.7C962.1,487,961.6,497,955.9,504.2z"/>
				</g>
			</g>
			<g>
				<g>
					<path class="st1" d="M970,470c-4.9,3.4-10.8,5.3-16.8,5.6c-8.2,0.3-16.4-2.7-22.5-8.3c-1.1-1-2.3-2.2-2.9-3.8
						c-0.5-1.3-0.3-2.8,0.5-3.5c0.4-0.4,0.6-1,0.4-1.6c1.5-0.3,2.9-1.1,4.2-2.2c0.5,0.5,1.3,0.7,2,0.3c3-1.8,7.2-0.1,10,2.3
						c1.2,1,2.2,2.1,3.4,3.3c1.9,2,3.9,4.1,6.5,5.6c4.5,2.6,9,3.1,13.5,2.5c0.1,0,0.3,0,0.4,0C969.1,470.1,969.5,470.1,970,470z"/>
				</g>
				<g>
					<path class="st1" d="M985.8,450.1c0.2,2.4-1.8,4.5-3.8,5.5c-2.4,1.2-5.3,1.4-8.1,1.5c-0.9,0-1.5,0.8-1.5,1.7c0,0,0,0.1,0,0.1
						c-0.3,0.1-0.6,0.4-0.8,0.7l-4.4,7.5c-3.7,0.4-7.4-0.1-10.9-2.2c-2.1-1.3-3.9-3.1-5.8-5c-1.1-1.2-2.3-2.4-3.6-3.5
						c-2.8-2.5-7.2-4.6-11.2-3.6c0.8-1.3,1.4-2.7,2-3.9c0.4-0.8,0-1.8-0.8-2.1c-0.8-0.4-1.7,0-2.1,0.8c-0.9,2-1.9,4.1-3.3,5.6
						c-1.4,1.6-3.2,2.5-4.9,2.3c-1.5-0.1-3.1-1.4-3.1-2.9c0-1,0.7-2.1,1.6-3.3l4.6-6.4l0,0l0,0c2.4-2.2,4-4.9,4.6-7.9
						c0.2-0.8,0.2-1.6,0.3-2.4c2.2-1.2,3.1-1,3.4-0.8c1.1,0.6,1.3,3.7,1.4,5.8c0.1,1.1,0.1,2.1,0.3,3c1,5.8,5.2,10.4,11.1,12
						c1.2,0.3,2.4,0.5,3.6,0.5c2.8,0,5.8-0.8,8.4-2.5c3.7-2.3,6.3-5.9,7.1-9.8c0.8-3.9-0.2-8.2-2.7-11.8c-2.5-3.6-6.3-5.9-10.2-6.4
						c-6.8-0.9-12.7,2.2-15.6,8c-0.4-0.7-1-1.3-1.7-1.7c-1.4-0.7-3.1-0.7-5.3,0.3c-0.4-2.1-1.4-4.2-2.7-6c-0.4-0.5-0.7-1-1.1-1.4
						c7.5-9.3,21.9-12.3,32.4-6.5c10.6,5.8,15.9,19.8,11.8,31.1c-0.3,0.8,0.1,1.6,0.8,2c0.7,0.4,1.6,0,2-0.7c0.7-1.3,3-1.6,4.8-1.2
						C984.3,446.8,985.6,448.4,985.8,450.1z"/>
				</g>
				<g>
					<path class="st0" d="M974.6,460.2c0,0.3,0,0.7-0.2,1l-3.1,5.3l-1.8,3c-0.2,0.4-0.6,0.6-1,0.7c-0.1,0-0.3,0-0.4,0
						c-0.3,0-0.6-0.1-0.8-0.2c-0.7-0.4-1-1.4-0.6-2.2l0.4-0.7l4.4-7.5c0.2-0.3,0.5-0.6,0.8-0.7c0.4-0.2,0.9-0.1,1.4,0.1
						C974.3,459.3,974.5,459.7,974.6,460.2z"/>
				</g>
			</g>
			<g>
				<g>
					<path class="st0" d="M899.7,475.9l-2.9,4.4c-0.3,0.5-0.8,0.7-1.3,0.7c-0.3,0-0.6-0.1-0.9-0.3c-0.7-0.5-0.9-1.5-0.4-2.2l2.9-4.4
						c0.5-0.7,1.5-0.9,2.2-0.4C900,474.1,900.2,475.1,899.7,475.9z"/>
				</g>
			</g>
			<g>
				<g>
					<path class="st0" d="M906.8,485.8l-4.2,9.8c-0.3,0.6-0.8,1-1.5,1c-0.2,0-0.4,0-0.6-0.1c-0.8-0.4-1.2-1.3-0.8-2.1l4.2-9.8
						c0.4-0.8,1.3-1.2,2.1-0.8C906.8,484.1,907.2,485,906.8,485.8z"/>
				</g>
			</g>
			<g>
				<g>
					<path class="st0" d="M923.7,473.6l-1.4,3.3c-0.3,0.6-0.8,1-1.5,1c-0.2,0-0.4,0-0.6-0.1c-0.8-0.4-1.2-1.3-0.8-2.1l1.4-3.3
						c0.4-0.8,1.3-1.2,2.1-0.8C923.6,471.9,924,472.8,923.7,473.6z"/>
				</g>
			</g>
			<g>
				<g>
					<path class="st0" d="M926.7,487.7l-0.9,2.7c-0.2,0.7-0.8,1.1-1.5,1.1c-0.2,0-0.3,0-0.5-0.1c-0.8-0.3-1.3-1.2-1-2l0.9-2.7
						c0.3-0.8,1.2-1.3,2-1C926.5,486,926.9,486.9,926.7,487.7z"/>
				</g>
			</g>
			<g>
				<g>
					<path class="st0" d="M932.4,500.3l-0.3,4.3c0,0.8-0.7,1.5-1.6,1.5h-0.1c-0.9-0.1-1.5-0.8-1.5-1.7l0.3-4.3
						c0-0.9,0.8-1.5,1.7-1.5C931.8,498.6,932.5,499.4,932.4,500.3z"/>
				</g>
			</g>
			<g>
				<g>
					<path class="st0" d="M948.1,486.6l-0.7,6.4c-0.1,0.8-0.8,1.4-1.6,1.4c-0.1,0-0.1,0-0.2,0c-0.9-0.1-1.5-0.9-1.4-1.7l0.7-6.4
						c0.1-0.9,0.9-1.5,1.8-1.4C947.5,485,948.2,485.7,948.1,486.6z"/>
				</g>
			</g>
			<g>
				<g>
					<path class="st0" d="M907.3,448.4c-0.2,0-0.5,0-0.7-0.2c-0.8-0.4-1.1-1.3-0.7-2.1l2.4-4.9c0.4-0.8,1.3-1.1,2.1-0.7
						c0.8,0.4,1.1,1.3,0.7,2.1l-2.4,4.9C908.5,448.1,907.9,448.4,907.3,448.4z"/>
				</g>
			</g>
			<g>
				<g>
					<path class="st0" d="M883.8,488.4c-0.1,0.9-0.9,1.5-1.7,1.4H882c-10.8-1-20.3,7.4-28.2,15.8c-17,18.1-33,37.6-47.5,57.8
						c-0.3,0.4-0.8,0.7-1.3,0.7h0c-0.5,0-1-0.3-1.3-0.8c-4.9-8-10-16.1-15.4-24c0-0.1-0.1-0.1-0.1-0.2c-0.3-0.7-0.1-1.6,0.6-2
						c0.7-0.5,1.7-0.3,2.2,0.4c0,0.1,0.1,0.1,0.1,0.2c4.9,7.2,9.6,14.5,14.1,21.9c14.2-19.6,29.8-38.5,46.4-56.2
						c8.3-8.9,18.4-17.8,30.4-16.8c0.2,0,0.4,0,0.6,0C883.2,486.8,883.8,487.5,883.8,488.4z"/>
				</g>
			</g>
			<g>
				<g>
					<path class="st0" d="M864.5,558.8c-36.2,58.4-60.4,126.3-68,191.5c0,0.3-0.1,0.6-0.1,0.9c-0.1,0.8-0.8,1.4-1.6,1.4
						c-0.1,0-0.1,0-0.2,0c-0.9-0.1-1.5-0.9-1.4-1.8v0c6.5-56,25-114,52.9-166.4c-3.5,4-7.2,7.8-11.3,11.3
						c-13.8,11.6-30,16.9-44.5,14.5c-17.1-2.9-30.4-15.7-41-27.9c-10.8-12.4-21.3-26.1-32.1-42.1c-0.5-0.7-0.3-1.7,0.4-2.2
						c0.7-0.5,1.7-0.3,2.2,0.4c10.7,15.9,21.1,29.6,31.9,41.8c10.3,11.7,23,24.1,39.2,26.9c13.6,2.3,28.8-2.7,41.9-13.8
						c11.9-10,20.6-23.3,29-36.1c0.5-0.7,1.4-0.9,2.2-0.5C864.8,557.1,865,558.1,864.5,558.8z"/>
				</g>
			</g>
			<g>
				<g>
					<path class="st1" d="M719.4,540.5c-0.3,0.2-0.6,0.3-0.9,0.3c-0.5,0-1-0.3-1.3-0.7c-15.5-23-29.4-47.4-42.8-70.9
						c-1-1.7-2.3-4.1-1.9-6.7c0.3-1.7,1.3-3.2,2.8-4.3c1.9-1.3,4.6-1.8,6.9-1.3c0.3,0.1,0.7,0.2,1.1,0.3c0,0,0,0,0,0
						c-1.7-3.3-1.8-8.2,1.6-10.8c1.4-1.1,3.4-1.6,5.3-1.5c1.2,0.1,2.5,0.4,3.7,1c2.6,1.3,4.6,3.5,6.3,5.4c0.6,0.7,0.5,1.7-0.1,2.3
						c0,0-0.1,0.1-0.2,0.1c-0.7,0.5-1.5,0.4-2.1-0.2c-1.6-1.8-3.3-3.7-5.4-4.7c-1.7-0.8-4.1-1.1-5.7,0.1c-1.9,1.5-1.8,4.7-0.7,6.8
						c0.9,1.6,2.2,3,3.7,4.2c0,0,0.1,0.1,0.2,0.1c1,0.6,1.9,1.2,2.6,2c0.6,0.6,0.6,1.5,0.1,2.2c-0.5,0.6-1.5,0.7-2.1,0.3
						c-0.4-0.3-0.8-0.6-1.2-0.9c-0.5-0.3-0.9-0.7-1.4-1c-2-1.2-4.5-2-6.6-2.5c-1.4-0.3-3.2,0-4.4,0.8c-0.6,0.4-1.3,1.1-1.4,2.1
						c-0.2,1.4,0.6,2.9,1.5,4.6c4.7,8.3,9.5,16.7,14.4,25.2c0.5,0.9,1.1,1.8,1.6,2.8c1.8,3.1,3.7,6.3,5.5,9.4
						c0.5,0.9,1.1,1.8,1.6,2.8c6.2,10.3,12.7,20.6,19.4,30.7C720.4,539.1,720.2,540,719.4,540.5z"/>
				</g>
			</g>
			<g>
				<g>
					<path class="st0" d="M895.3,502.7c-0.2,0.6-0.4,1.2-0.7,1.8c-1.6,4.2-3.1,8.4-4.6,12.6v0c-0.7,1.8-1.3,3.6-1.9,5.4
						c-21.2,59.6-38.3,120.9-50.8,183c-0.2,1.1-0.4,2.1-0.6,3.1c-2.6,13.2-5.1,26.4-7.3,39.6c-0.1,0.5-0.5,1-1,1.2
						c-5.5,2.1-14.7,5-23.8,5c-0.4,0-0.7,0-1.1,0c-1.1,0-2.1-0.1-3.2-0.2c-2.1-0.2-4.1-0.6-6.1-1.3c-0.8-0.3-1.3-1.2-1-2
						c0-0.1,0-0.1,0.1-0.2c0.3-0.7,1.2-1.1,1.9-0.9c0.4,0.1,0.9,0.3,1.3,0.4c10.6,2.7,23.7-1.3,29.8-3.5
						c10.8-63.5,26.2-126.4,46-187.8c0.8-2.5,1.6-4.9,2.4-7.4c3.8-11.6,7.8-23.2,12-34.7c0.2-0.6,0.4-1.1,0.6-1.7v0
						c1.5-4.1,3-8.2,4.5-12.3c0.2-0.5,0.3-0.9,0.5-1.4c0.3-0.7,1-1.1,1.8-1c0.1,0,0.2,0,0.3,0.1c0.3,0.1,0.5,0.3,0.6,0.5
						C895.4,501.5,895.5,502.1,895.3,502.7z"/>
				</g>
			</g>
			<g>
				<g>
					<path class="st0" d="M1188.8,558c-0.7-1.9-2.8-4.1-8.5-4c-3.2,0.1-6.5,0.2-9.8,0.5c4.1-2.2,8.1-4.8,11.9-7.6
						c0.8-0.6,3.1-2.4,2.8-4.9c-0.1-1.2-0.7-2.1-1.7-2.8c-1.9-1.2-4.8-0.9-6.8-0.3c-4,1.3-8.7,2.6-13.3,3.8
						c-0.9,0.2-1.8,0.5-2.7,0.7l9.9-6.3c1.4-0.9,3.2-2,4.3-3.7c1.4-2.1,1.4-4.8,0.1-6.6c-1.8-2.3-5-2.5-9.2-0.6
						c-7.4,3.3-14.6,8-21.5,12.6c0.4-5.3,0.4-10.6,0-15.9c-0.4-6.2-3-10.1-7-10.4c-4.4-0.3-7.2,4.2-8.3,8.1
						c-1.5,5.7-1.4,11.8,0.5,19.2c-37.7,20.1-68.7,46.9-94.6,81.8c-2.8-23.2-7.5-49.5-20-72c-13.7-24.7-35.6-41.6-59-45.5
						c-1-0.2-2-0.3-3.1-0.4c-0.3,0-0.7,0-0.9,0.2c0,0,0,0,0,0c-0.2,0.1-0.4,0.3-0.6,0.5c0,0,0,0,0,0c-0.1,0.2-0.2,0.4-0.2,0.6
						c-0.2,1.3-0.4,2.6-0.5,3.9c-0.5,4-1,8-1.5,12c-0.1,1.2-0.3,2.3-0.4,3.5v0c-7.2,64.4-7,127.9,0.4,189.5c0.1,1.1,0.2,2.1,0.4,3.2
						c1.4,11.4,3.1,22.7,5,33.9c0.1,0.6,0.6,1.1,1.2,1.3c3.7,0.9,7.3,1.6,11,2.1c1.1,0.1,2.1,0.3,3.2,0.4c3.3,0.4,6.5,0.5,9.8,0.5
						c10.2,0,20.3-1.7,30.2-5c0.4-0.1,0.7-0.4,0.9-0.8c0.2-0.4,0.2-0.8,0-1.2c-21.8-57.9-33.1-108.6-34.4-154.5l8.6,30.5
						c5.8,20.7,13.7,43.5,33.3,52.5c10.8,4.9,24.5,4.7,37.7-0.5c12.4-4.9,22.8-13.4,31.4-21.1c30.9-27.7,55.1-57.2,70.1-85.4
						c7.7-0.2,15.4-1,23-2.5c2.1-0.4,4.3-0.9,6.1-2.3C1188.7,563.3,1189.7,560.4,1188.8,558z M1184.5,562.5c-1.3,1-3,1.4-4.8,1.8
						c-7.7,1.5-15.5,2.4-23.4,2.5c-0.6,0-1.1,0.3-1.4,0.9c-0.7,1.4-1.5,2.9-2.3,4.3c-0.5,0.9-1,1.9-1.6,2.8c-1.9,3.3-3.9,6.5-6,9.8
						c-0.6,0.9-1.2,1.8-1.8,2.7c-14.6,22-34.4,44.4-58.2,65.7c-8.4,7.5-18.5,15.8-30.4,20.5c-12.3,4.9-25.1,5.1-35.2,0.5
						c-18.4-8.4-25.9-30.4-31.5-50.4l-11.8-42c-0.2-0.7-1-1.2-1.7-1.1c-0.8,0.1-1.4,0.8-1.4,1.6c-0.6,48.9,10.6,103.2,34.1,165.9
						c-16,5.2-32.8,5.7-49.7,1.7c-9.9-58.8-13-119.7-9.2-181.6c0.2-2.8,0.3-5.5,0.5-8.3c1.1-16.3,2.8-32.7,4.9-49.2
						c0.1-1.1,0.3-2.3,0.4-3.4c0.3,0,0.6,0.1,0.9,0.1c22.6,3.6,43.9,19.9,57.3,44c13,23.4,17.5,51,20.1,74.9
						c0.1,0.7,0.5,1.2,1.2,1.4c0.6,0.2,1.3-0.1,1.7-0.6c21.3-29.5,46.1-53.2,75.4-72.1c0.9-0.6,1.8-1.2,2.8-1.8
						c3.5-2.2,7.1-4.4,10.8-6.4c0.9-0.5,1.8-1.1,2.8-1.6c1.7-1,3.5-1.9,5.2-2.8c0.7-0.4,1-1.1,0.8-1.8c-2-7.3-2.3-13.3-0.8-18.7
						c0.6-2.2,2.3-6,5-5.8c2.6,0.2,3.8,4.1,4,7.5c0.4,6.2,0.4,12.5-0.2,18.7c-0.1,0.6,0.2,1.2,0.8,1.5c0.5,0.3,1.2,0.3,1.7,0l1-0.7
						c7.4-4.9,15-10,22.8-13.5c1-0.4,4.2-1.8,5.3-0.3c0.6,0.7,0.3,2-0.2,2.8c-0.8,1.1-2.1,2-3.3,2.8l-19.3,12.2
						c-0.7,0.4-0.9,1.3-0.6,2c0.4,0.7,1.2,1.1,1.9,0.8c4-1.3,8.7-2.6,13.3-3.8c4.6-1.2,9.3-2.5,13.4-3.9c1.6-0.5,3.3-0.5,4.1,0
						c0.2,0.1,0.2,0.2,0.3,0.4c0,0.5-0.5,1.2-1.6,2c-7.2,5.4-15.1,9.7-23.6,12.7c-0.8,0.3-1.3,1.2-1,2c0.3,0.8,1.2,1.3,2,1
						c6.7-2.2,14.8-2.7,22.5-2.8c1.8,0,4.8,0.2,5.5,2C1186.3,560.4,1185.5,561.8,1184.5,562.5z"/>
				</g>
				<g>
					<path class="st1" d="M953.3,478.7c-0.4,0-0.8,0-1.2,0c-8.6,0-17.2-3.3-23.6-9.1c-1.3-1.2-2.9-2.8-3.7-5
						c-0.1-0.2-0.1-0.3-0.1-0.5c-1.3,1.6-3,2.9-5,3.8c-2.5,1.1-5.3,1.7-8.4,1.7c-1.2,0-2.4-0.1-3.7-0.2c-4.1-0.5-7.8-1.7-11.2-3.5
						c0,0.4-0.1,0.8-0.4,1.2c-3.3,3.6-6.6,7.3-8.8,11.6c-2.3,4.6-2.8,9.4-1.4,13.3c1.3,3.4,4,6.2,8.3,8.7c0.1,0,0.2,0,0.3,0.1
						c0.3,0.1,0.5,0.3,0.6,0.5c1.5,0.8,3.1,1.5,4.9,2.2c8.8,3.5,17.9,5.7,27.3,6.5c10.8,1,18.9-0.8,24-5.4c0,0,0,0,0,0
						c0.1-0.2,0.3-0.4,0.6-0.5c0,0,0,0,0,0c6.3-6.2,7.1-16.1,7-25.9C957.1,478.4,955.2,478.6,953.3,478.7z M895.5,481
						c-0.3,0-0.6-0.1-0.9-0.3c-0.7-0.5-0.9-1.5-0.4-2.2l2.9-4.4c0.5-0.7,1.5-0.9,2.2-0.4c0.7,0.5,0.9,1.5,0.4,2.2l-2.9,4.4
						C896.5,480.7,896,481,895.5,481z M906.8,485.8l-4.2,9.8c-0.3,0.6-0.8,1-1.5,1c-0.2,0-0.4,0-0.6-0.1c-0.8-0.4-1.2-1.3-0.8-2.1
						l4.2-9.8c0.4-0.8,1.3-1.2,2.1-0.8C906.8,484.1,907.2,485,906.8,485.8z M920.8,477.9c-0.2,0-0.4,0-0.6-0.1
						c-0.8-0.4-1.2-1.3-0.8-2.1l1.4-3.3c0.4-0.8,1.3-1.2,2.1-0.8c0.8,0.4,1.2,1.3,0.8,2.1l-1.4,3.3
						C922,477.5,921.4,477.9,920.8,477.9z M926.7,487.7l-0.9,2.7c-0.2,0.7-0.8,1.1-1.5,1.1c-0.2,0-0.3,0-0.5-0.1
						c-0.8-0.3-1.3-1.2-1-2l0.9-2.7c0.3-0.8,1.2-1.3,2-1C926.5,486,926.9,486.9,926.7,487.7z M932.1,504.5c0,0.8-0.7,1.5-1.6,1.5
						h-0.1c-0.9-0.1-1.5-0.8-1.5-1.7l0.3-4.3c0-0.9,0.8-1.5,1.7-1.5c0.9,0.1,1.5,0.8,1.5,1.7L932.1,504.5z M947.4,493
						c-0.1,0.8-0.8,1.4-1.6,1.4c-0.1,0-0.1,0-0.2,0c-0.9-0.1-1.5-0.9-1.4-1.7l0.7-6.4c0.1-0.9,0.9-1.5,1.8-1.4
						c0.9,0.1,1.5,0.9,1.4,1.8L947.4,493z"/>
				</g>
				<g>
					<path class="st1" d="M1151,574.7c-1.9,3.3-3.9,6.5-6,9.8c-14.5-5.2-26.5-17.2-31.7-31.6c3.5-2.2,7.1-4.4,10.8-6.4
						C1129.4,558.6,1139.1,568.8,1151,574.7z"/>
				</g>
				<g>
					<path class="st1" d="M1184.5,562.5c-1.3,1-3,1.4-4.8,1.8c-7.7,1.5-15.5,2.4-23.4,2.5c-0.6,0-1.1,0.3-1.4,0.9
						c-0.7,1.4-1.5,2.9-2.3,4.3c-11.3-5.6-20.6-15.4-25.6-27c1.7-1,3.5-1.9,5.2-2.8c0.7-0.4,1-1.1,0.8-1.8c-2-7.3-2.3-13.3-0.8-18.7
						c0.6-2.2,2.3-6,5-5.8c2.6,0.2,3.8,4.1,4,7.5c0.4,6.2,0.4,12.5-0.2,18.7c-0.1,0.6,0.2,1.2,0.8,1.5c0.5,0.3,1.2,0.3,1.7,0l1-0.7
						c7.4-4.9,15-10,22.8-13.5c1-0.4,4.2-1.8,5.3-0.3c0.6,0.7,0.3,2-0.2,2.8c-0.8,1.1-2.1,2-3.3,2.8l-19.3,12.2
						c-0.7,0.4-0.9,1.3-0.6,2c0.4,0.7,1.2,1.1,1.9,0.8c4-1.3,8.7-2.6,13.3-3.8c4.6-1.2,9.3-2.5,13.4-3.9c1.6-0.5,3.3-0.5,4.1,0
						c0.2,0.1,0.2,0.2,0.3,0.4c0,0.5-0.5,1.2-1.6,2c-7.2,5.4-15.1,9.7-23.6,12.7c-0.8,0.3-1.3,1.2-1,2c0.3,0.8,1.2,1.3,2,1
						c6.7-2.2,14.8-2.7,22.5-2.8c1.8,0,4.8,0.2,5.5,2C1186.3,560.4,1185.5,561.8,1184.5,562.5z"/>
				</g>
				<g>
					<path class="st0" d="M958.2,536.6c0,0.9-0.5,1.8-1,2.7c-2.3,4.6-4,9.1-5.8,13.5c-0.9,2.3-1.8,4.6-2.8,6.9
						c1.1-16.3,2.8-32.7,4.9-49.2c3.3,3.6,6,7.8,7.9,12.2l-7,3.5c-0.5,0.3-0.9,0.8-0.9,1.4c0,0.6,0.3,1.1,0.9,1.4
						C956.7,530.3,958.4,533.6,958.2,536.6z"/>
				</g>
				<g>
					<path class="st0" d="M1143.2,587.3c-14.6,22-34.4,44.4-58.2,65.7c-8.4,7.5-18.5,15.8-30.4,20.5c-12.3,4.9-25.1,5.1-35.2,0.5
						c-18.4-8.4-25.9-30.4-31.5-50.4l-11.8-42c-0.2-0.7-1-1.2-1.7-1.1c-0.8,0.1-1.4,0.8-1.4,1.6c-0.6,48.9,10.6,103.2,34.1,165.9
						c-16,5.2-32.8,5.7-49.7,1.7c-9.9-58.8-13-119.7-9.2-181.6c0.2-0.1,0.4-0.4,0.5-0.6c2.3-4.6,4-9.1,5.8-13.5
						c1.7-4.3,3.4-8.8,5.7-13.2c0.5-1.1,1.2-2.4,1.3-4c0.2-3.2-1.1-6.6-3.2-8.8l6.1-3c0.7-0.4,1.1-1.3,0.8-2
						c-2.3-5.8-5.8-11.2-10.2-15.7c22.6,3.6,43.9,19.9,57.3,44c13,23.4,17.5,51,20.1,74.9c0.1,0.7,0.5,1.2,1.2,1.4
						c0.6,0.2,1.3-0.1,1.7-0.6c21.3-29.5,46.1-53.2,75.4-72.1C1116.1,569.5,1128.4,581.8,1143.2,587.3z"/>
				</g>
			</g>
			<g>
				<g>
					<path class="st1" d="M887.8,499.5l-0.4,0.2l-11.1,6.2c-0.8,0.4-0.9,0.7-0.9,0.7c0,0,0.2,0.1,0.5,0.4l7.7,7.2
						c0.4,0.4,0.6,0.9,0.5,1.4c-0.1,0.5-0.4,1-0.9,1.2c-2.5,1.2-5.2,2.6-7.8,3.9c-2.3,1.1-4.6,2.3-6.7,3.4c3.2,10.8,5.2,19.9,6,27.5
						c0.3,2.3,0.4,4.4,0.5,6.4c0,0.9-0.7,1.6-1.5,1.6h0c-0.5,0-1-0.2-1.3-0.6c-0.2-0.3-0.3-0.6-0.3-0.9c-0.2-8.7-2.4-20-6.7-34.4
						c-0.2-0.7,0.1-1.5,0.8-1.9c2.5-1.2,5.2-2.6,7.9-3.9c2-1,3.9-2,5.8-2.9l-6.1-5.7c-0.5-0.5-1.5-1.4-1.5-2.7
						c-0.1-2,1.9-3.2,2.5-3.5l10.4-5.8l1.1-0.6c0.8-0.4,1.7-0.1,2.2,0.6C888.9,498.1,888.6,499,887.8,499.5z"/>
				</g>
			</g>
			<g>
				<g>
					<path class="st1" d="M964.2,525l-6.1,3c2.1,2.2,3.4,5.6,3.2,8.8c-0.1,1.5-0.8,2.9-1.3,4c-2.2,4.4-4,8.9-5.7,13.2
						c-1.7,4.4-3.5,8.9-5.8,13.5c-0.1,0.3-0.3,0.5-0.5,0.6c-0.3,0.2-0.6,0.3-0.9,0.3c-0.2,0-0.5,0-0.7-0.2c-0.8-0.4-1.1-1.4-0.7-2.1
						c1-2.1,2-4.2,2.8-6.3c1-2.3,1.9-4.7,2.8-6.9c1.7-4.4,3.5-8.9,5.8-13.5c0.4-0.9,0.9-1.9,1-2.7c0.2-3-1.5-6.3-3.8-7.5
						c-0.5-0.3-0.9-0.8-0.9-1.4c0-0.6,0.4-1.1,0.9-1.4l7-3.5c-2-4.4-4.7-8.6-7.9-12.2c-0.5-0.6-1-1.1-1.6-1.7
						c-0.2-0.2-0.3-0.4-0.4-0.6c-0.2-0.6-0.1-1.2,0.4-1.7c0.5-0.5,1.3-0.6,1.9-0.3c0.1,0.1,0.2,0.2,0.3,0.3c0.2,0.2,0.4,0.4,0.6,0.6
						c4.3,4.5,7.8,9.9,10.2,15.7C965.3,523.7,965,524.6,964.2,525z"/>
				</g>
			</g>
			<g>
				<g>
					<path class="st0" d="M951.6,715.4c0.1,0.9-0.5,1.7-1.4,1.7c-0.3,0-0.6,0-0.8,0.1c-10.6,1-21.1,1.5-31.7,1.5
						c-27.3,0-54.4-3.4-81.1-10.1c-0.3-0.1-0.5-0.1-0.7-0.2c-0.8-0.2-1.4-1.1-1.1-1.9c0.2-0.8,1.1-1.4,1.9-1.1
						c0.2,0,0.4,0.1,0.6,0.1c36.6,9.3,74.2,12.2,111.8,8.6c0.3,0,0.6,0,0.9-0.1C950.8,713.9,951.6,714.5,951.6,715.4z"/>
				</g>
			</g>
			<g>
				<g>
					<path class="st0" d="M891.8,503c-1.5,4.1-3,8.2-4.5,12.3v0c-0.5,0.4-0.8,1-0.6,1.7c-4.2,11.5-8.1,23.1-12,34.7
						c-0.8-7.6-2.8-16.7-6-27.5c2.2-1.1,4.4-2.2,6.7-3.4c2.7-1.3,5.4-2.7,7.8-3.9c0.5-0.2,0.8-0.7,0.9-1.2c0.1-0.5-0.1-1-0.5-1.4
						l-7.7-7.2c-0.3-0.3-0.5-0.5-0.5-0.4c0,0,0.1-0.3,0.9-0.7l11.1-6.2C888.8,501,890.2,502,891.8,503z"/>
				</g>
				<g>
					<path class="st0" d="M949.5,523.2c-0.3,0.4-0.6,0.9-0.9,1.3v0c-7.5,11.3-14.8,22.8-21.8,34.5c0,0.1-0.1,0.3-0.2,0.4
						c-5.7,9.4-11.3,19-16.6,28.5c-0.3,0.5-0.8,0.8-1.4,0.8h-0.2c-0.6-0.1-1.1-0.5-1.4-1.1c-7.1-21.4-13.5-43.3-19-65.2
						c-0.5-1.9-0.9-3.7-1.4-5.6c-0.2-0.7,0.1-1.3,0.6-1.7v0c0.2-0.1,0.4-0.2,0.6-0.3c0.9-0.2,1.7,0.3,1.9,1.2
						c0.1,0.3,0.2,0.6,0.2,0.9v0c3.2,13.3,6.8,26.6,10.7,39.8c0.4,1.4,0.8,2.9,1.3,4.3c2.2,7.4,4.5,14.7,6.9,22
						c4.8-8.5,9.7-16.9,14.8-25.3c1-1.6,1.9-3.2,2.9-4.8c6.5-10.7,13.3-21.3,20.2-31.7c0.5-0.7,1.4-0.9,2.2-0.5c0,0,0,0,0,0
						C949.8,521.5,950,522.5,949.5,523.2z"/>
				</g>
			</g>
			<g>
				<g>
					<path class="st0" d="M931,513.3l-7.5,16.1c-2.2-1.5-4.9-2.2-7.3-2l-3.5-16.7c4.7,1.1,9.4,1.9,14.2,2.3
						C928.4,513.2,929.7,513.2,931,513.3z"/>
				</g>
				<g>
					<path class="st0" d="M934,514.5l-8.4,18.1c0,0,0,0,0,0.1c-0.2,0.4-0.7,0.7-1.2,0.8c-0.1,0-0.2,0-0.3,0c-0.4,0-0.8-0.2-1.1-0.5
						c-0.2-0.2-0.4-0.4-0.7-0.6c-1.9-1.5-4.8-2.3-6.8-1.6c-0.2,0-0.3,0.1-0.5,0.1c-0.3,0-0.5-0.1-0.8-0.2c-0.4-0.2-0.7-0.6-0.8-1.1
						l-0.4-1.6l-3.7-17.8c0-0.1,0-0.2,0-0.3c0-0.8,0.5-1.5,1.3-1.6c0.9-0.2,1.7,0.4,1.9,1.2l0.3,1.3l3.5,16.7c2.4-0.2,5.2,0.5,7.3,2
						l7.5-16.1l0.1-0.1c0.4-0.8,1.3-1.1,2.1-0.8c0.4,0.2,0.7,0.5,0.8,0.9C934.2,513.7,934.2,514.1,934,514.5z"/>
				</g>
			</g>
			<g>
				<g>
					<path class="st1" d="M913.1,527.9c-0.3,0.2-0.6,0.5-0.7,0.9c-3.5,9.8-6.9,19.1-11.6,28.1c-3.9-13.2-7.5-26.5-10.7-39.8v0
						c1.5-4.2,3-8.4,4.6-12.6c1.4,0.7,2.8,1.3,4.1,1.8c3.5,1.4,7,2.5,10.6,3.5c0,0.1,0,0.2,0,0.3L913.1,527.9z"/>
				</g>
				<g>
					<path class="st0" d="M915.4,529.9c-0.1,0.3-0.2,0.6-0.4,1c-3.8,10.6-7.5,20.6-13,30.4c-0.1,0.2-0.2,0.4-0.3,0.6
						c-0.3,0.5-0.8,0.8-1.4,0.8c-0.3,0-0.5-0.1-0.8-0.2c-0.8-0.4-1-1.4-0.6-2.2c0.6-1.1,1.2-2.2,1.8-3.3c4.7-9,8.1-18.3,11.6-28.1
						c0.1-0.4,0.4-0.7,0.7-0.9c0.4-0.2,0.9-0.3,1.3-0.1C915.2,528.1,915.7,529.1,915.4,529.9z"/>
				</g>
			</g>
			<g>
				<g>
					<path class="st0" d="M923.7,558c-5.1,8.4-10,16.8-14.8,25.3c-2.4-7.3-4.7-14.6-6.9-22c5.5-9.8,9.2-19.8,13-30.4
						c0.2,0,0.3,0,0.5-0.1c2-0.7,4.9,0,6.8,1.6L923.7,558z"/>
				</g>
				<g>
					<path class="st1" d="M950.5,509c-0.5,4-1,8-1.5,12c-0.7-0.5-1.7-0.3-2.2,0.5c-6.9,10.4-13.7,21-20.2,31.7l-1.1-20.5
						c0,0,0,0,0-0.1l8.4-18.1c0.2-0.4,0.2-0.8,0-1.2C940.7,513.1,946.3,511.7,950.5,509z"/>
				</g>
				<g>
					<path class="st0" d="M926.9,558.3c0,0.2,0,0.5-0.1,0.7c0,0.1-0.1,0.3-0.2,0.4c-0.3,0.4-0.7,0.6-1.2,0.6c0,0-0.1,0-0.1,0
						c-0.8,0-1.5-0.7-1.6-1.5l0-0.5l-1.4-25.6l0-0.4c0-0.9,0.6-1.6,1.5-1.7c0.9,0,1.6,0.6,1.7,1.5l0,0.8l1.1,20.5L926.9,558.3z"/>
				</g>
			</g>
			<g>
				<g>
					<path class="st1" d="M966.5,754.6c-1.5,47.3-5.5,94.9-9.4,140.9c-3.9,45.9-7.8,93.3-9.4,141.1c-6.8,0.3-13.7,0.4-20.5,0.5
						c-6.7,0.1-13.5,0.2-20.2,0.5c6.1-55.6-1-234.1-19.8-261.5c-0.3-0.4-0.7-0.6-1.1-0.7c-0.5,0-0.9,0.1-1.3,0.4
						c-22,20.1-47.1,226.3-41.5,263.5c-9.9,1.2-20.3,1.1-30.3,1.1c-2.4,0-4.8,0-7.2,0c-8.8-103.1-5.7-190.9-2.4-283.9l0.1-2.2
						c0.4,0,0.7,0,1.1,0c9.1,0,18.3-2.9,23.8-5c0.5-0.2,0.9-0.7,1-1.2c2.2-13.2,4.7-26.4,7.3-39.6c26.6,6.8,53.8,10.1,81.1,10.1
						c10.6,0,21.1-0.5,31.7-1.5c1.4,11.4,3.1,22.7,5,33.9c0.1,0.6,0.6,1.1,1.2,1.3C959.2,753.4,962.9,754.1,966.5,754.6z"/>
				</g>
				<g>
					<path class="st0" d="M969.7,754.2c0,0.2,0,0.5,0,0.7c-1.5,47.3-5.5,94.8-9.3,140.8c-3.9,46.3-7.9,94.2-9.5,142.4
						c0,0.8-0.7,1.5-1.5,1.5c-0.9,0-1.8,0.1-2.7,0.1c-2.8,0.1-5.7,0.2-8.5,0.3c-3.6,0.1-7.3,0.1-10.8,0.2c-2.6,0-5.3,0.1-8,0.1
						c-0.9,0-1.8,0-2.7,0.1h0c-3.8,0.1-7.6,0.2-11.3,0.4c-0.5,0-0.9-0.2-1.2-0.5c-0.3-0.3-0.5-0.8-0.4-1.3
						c6.9-56.2-1.5-228.7-18-259.4c-8.8,11.5-19.8,58.3-29.2,124.2c-8.8,62.4-13,121-9.8,136.5c0.1,0.4,0,0.9-0.3,1.3
						c-0.3,0.4-0.7,0.6-1.1,0.7c-1.9,0.3-3.8,0.5-5.7,0.6c-1.1,0.1-2.2,0.2-3.3,0.3c-6,0.4-12.1,0.5-18.1,0.5c-1.8,0-3.5,0-5.2,0
						h-1.4c-2.4,0-4.8,0-7.2,0c0,0,0,0,0,0c-0.8,0-1.5-0.6-1.6-1.4c-8.9-103.9-5.8-192.2-2.6-285.7l0.1-2.3l0-0.7
						c0-0.9,0.8-1.6,1.7-1.5c0.9,0,1.6,0.8,1.5,1.6l0,0.8l-0.1,2.2c-3.3,92.9-6.3,180.7,2.4,283.9c2.4,0,4.8,0,7.2,0
						c10.1,0,20.4,0,30.3-1.1c-5.6-37.2,19.6-243.5,41.5-263.5c0.4-0.3,0.8-0.5,1.3-0.4c0.5,0.1,0.9,0.3,1.1,0.7
						c18.8,27.4,25.9,205.9,19.8,261.5c6.7-0.3,13.5-0.4,20.2-0.5c6.8-0.1,13.7-0.2,20.5-0.5c1.6-47.8,5.6-95.2,9.4-141.1
						c3.9-46,7.8-93.6,9.4-140.9c0-0.2,0-0.3,0-0.5c0-0.9,0.7-1.6,1.6-1.5C969,752.6,969.7,753.3,969.7,754.2z"/>
				</g>
			</g>
			<g>
				<g>
					<path class="st0" d="M873.8,509.4l6.1,5.7c-1.9,0.9-3.8,1.9-5.8,2.9c-2.7,1.4-5.4,2.7-7.9,3.9c-0.7,0.3-1,1.1-0.8,1.9
						c4.3,14.4,6.5,25.6,6.7,34.4c0,0.4,0.1,0.7,0.3,0.9c-19.8,61.4-35.2,124.3-46,187.8c-6.1,2.2-19.2,6.2-29.8,3.5
						c7.7-65.2,31.8-133.1,68-191.5c0.5-0.7,0.2-1.7-0.5-2.2c-0.7-0.5-1.7-0.3-2.2,0.5c-8.4,12.8-17.1,26.1-29,36.1
						c-13.1,11-28.4,16-41.9,13.8c-16.2-2.7-28.9-15.1-39.2-26.9c-10.7-12.3-21.2-25.9-31.9-41.8c-6.8-10-13.2-20.3-19.4-30.7
						c15.2-7.3,28.2-18.6,37.6-32.6c18.2,20.5,34.9,42,50,64.1c0,0.1,0.1,0.1,0.1,0.2c5.3,7.9,10.5,15.9,15.4,24
						c0.3,0.4,0.8,0.7,1.3,0.8h0c0.5,0,1-0.3,1.3-0.7c14.5-20.2,30.5-39.7,47.5-57.8c7.9-8.4,17.4-16.8,28.2-15.8
						c0.1,1.1,0.4,2.2,0.8,3.2c0.6,1.6,1.4,3,2.4,4.3l-10.4,5.8c-0.7,0.4-2.6,1.5-2.5,3.5C872.3,508,873.2,508.9,873.8,509.4z"/>
				</g>
				<g>
					<path class="st1" d="M738.1,475C738.1,475,738.1,475,738.1,475c-9.5,14.1-22.4,25.3-37.6,32.7c-0.5,0.2-0.9,0.5-1.4,0.7
						c-0.2,0.1-0.4,0.1-0.7,0.1c-0.6,0-1.2-0.3-1.4-0.9c-0.4-0.8,0-1.7,0.8-2.1c0.4-0.2,0.7-0.4,1.1-0.5c14.8-7.1,27.5-18,36.6-31.7
						c0.1-0.2,0.3-0.4,0.6-0.5c0.5-0.3,1.1-0.3,1.7,0.1C738.4,473.3,738.6,474.3,738.1,475z"/>
				</g>
			</g>
			<g>
				<g>
					<path class="st0" d="M1147,586.9c-0.2,0.7-0.8,1.1-1.5,1.1c-0.2,0-0.3,0-0.5-0.1c-0.6-0.2-1.2-0.4-1.8-0.6
						c-14.8-5.5-27.1-17.8-32.7-32.6c-0.2-0.5-0.4-1-0.5-1.5c-0.3-0.8,0.2-1.7,1-2c0.8-0.3,1.7,0.2,2,1c0.1,0.3,0.2,0.5,0.3,0.8
						c5.2,14.4,17.2,26.4,31.7,31.6c0.4,0.1,0.7,0.2,1,0.4C1146.8,585.2,1147.3,586.1,1147,586.9z"/>
				</g>
			</g>
			<g>
				<g>
					<path class="st0" d="M1153.3,574.1c-0.3,0.6-0.8,0.9-1.4,0.9c-0.2,0-0.5,0-0.7-0.2c-0.1,0-0.1-0.1-0.2-0.1
						c-11.8-5.9-21.5-16.1-26.9-28.2c-0.2-0.4-0.4-0.9-0.6-1.3c-0.3-0.8,0-1.8,0.9-2.1c0.8-0.4,1.8,0,2.1,0.9c0.1,0.3,0.3,0.7,0.4,1
						c5,11.6,14.3,21.4,25.6,27c0,0,0,0,0,0C1153.4,572.4,1153.7,573.3,1153.3,574.1z"/>
				</g>
			</g>
			<g>
				<g>
					<path class="st1" d="M736,472.7c-0.2,0.1-0.4,0.3-0.6,0.5c-9.2,13.7-21.8,24.6-36.6,31.7c-1.9-3.1-3.7-6.3-5.5-9.4
						c14.4-6.6,27.2-16.6,37.1-29C732.3,468.6,734.1,470.6,736,472.7z"/>
				</g>
				<g>
					<path class="st0" d="M730.5,466.5c0,0-0.1,0.1-0.1,0.1c-9.9,12.3-22.8,22.3-37.1,29c-0.1,0-0.2,0.1-0.2,0.1
						c-0.2,0.1-0.4,0.1-0.7,0.1c-0.6,0-1.2-0.4-1.4-0.9c-0.4-0.8,0-1.7,0.7-2.1c0,0,0,0,0.1,0c14.1-6.4,26.6-16.2,36.3-28.3
						c0.1-0.1,0.2-0.2,0.2-0.2c0.6-0.5,1.4-0.5,2,0C730.9,464.8,731,465.8,730.5,466.5z"/>
				</g>
			</g>
			<g>
				<g>
					<path class="st0" d="M837.9,1051.1c-0.3,0.2-0.9,0.3-1.4,0.4l-8.2,1.3c-0.1-0.4-0.2-0.8-0.3-1.2c-0.2-0.9-0.4-1.8-0.6-2.5
						c-0.1-0.6-0.6-1.1-1.2-1.2c-0.6-0.2-1.2,0-1.6,0.5c-6.2,7.5-14,13.9-22.6,18.5c-1.6,0.9-3.3,1.7-5,1.7c-1.3,0-2.8-0.9-2.9-2.1
						c-0.1-0.8,0.4-1.8,0.9-2.6c5-8.8,12.9-15.7,22.3-19.5c0.4-0.1,0.7-0.4,0.8-0.8c6,0,12.1-0.1,18.1-0.5c-0.4,1.8,0.5,3.6,1.2,5
						l0.1,0.2C838.2,1049.6,838.3,1050.7,837.9,1051.1z"/>
				</g>
				<g>
					<path class="st0" d="M840,1053.5c-1,0.8-2.2,1-3,1.1l-9.7,1.5c-0.8,0.1-1.6-0.4-1.8-1.2c-0.1-0.7-0.3-1.4-0.5-2.1
						c-6.1,6.8-13.5,12.6-21.5,16.9c-1.8,1-3.9,2.1-6.3,2.1c-0.1,0-0.2,0-0.3,0c-2.7-0.1-5.6-1.9-5.9-4.9c-0.2-1.7,0.5-3.1,1.3-4.5
						c4.5-7.9,11.2-14.4,19.2-18.7c1.5-0.8,3.1-1.5,4.7-2.2c0.8-0.3,1.7,0.1,2.1,0.9c0.2,0.4,0.1,0.9-0.1,1.3
						c-0.2,0.4-0.4,0.7-0.8,0.8c-9.4,3.7-17.3,10.7-22.3,19.5c-0.5,0.8-1,1.8-0.9,2.6c0.1,1.2,1.6,2,2.9,2.1c1.7,0,3.4-0.8,5-1.7
						c8.5-4.7,16.4-11.1,22.6-18.5c0.4-0.5,1-0.7,1.6-0.5c0.6,0.1,1.1,0.6,1.2,1.2c0.2,0.8,0.4,1.7,0.6,2.5c0.1,0.4,0.2,0.8,0.3,1.2
						l8.2-1.3c0.5-0.1,1.1-0.2,1.4-0.4c0.4-0.4,0.3-1.5-0.3-2.8l-0.1-0.2c-0.7-1.4-1.5-3.1-1.2-5c0.1-0.3,0.2-0.7,0.3-1
						c0.4-0.8,1.3-1.1,2.1-0.8c0.6,0.3,0.9,0.9,0.9,1.5c0,0.2,0,0.4-0.1,0.6c-0.4,0.8,0.3,2.1,0.8,3.2l0.1,0.2
						C841.8,1049.6,841.6,1052.1,840,1053.5z"/>
				</g>
			</g>
			<g>
				<g>
					<path class="st0" d="M964.3,1059.4c0,1.2-1.4,2.2-2.6,2.4c-1.7,0.3-3.5-0.4-5.1-1c-9-3.6-17.6-9-24.6-15.7
						c-0.4-0.4-1.1-0.5-1.7-0.3c-0.6,0.2-1,0.7-1,1.4c-0.1,0.8-0.2,1.7-0.3,2.6c-0.1,0.4-0.1,0.8-0.2,1.2l-8.3-0.3
						c-0.5,0-1.1,0-1.4-0.2c-0.5-0.3-0.5-1.5,0-2.8l0.1-0.2c0.6-1.7,1.4-4,0.2-6c0,0,0,0,0,0c2.7,0,5.4-0.1,8-0.1
						c3.6,0,7.2-0.1,10.8-0.2c0.2,0.1,0.4,0.2,0.6,0.3c9.8,2.6,18.5,8.5,24.5,16.7C963.7,1057.8,964.3,1058.6,964.3,1059.4z"/>
				</g>
				<g>
					<path class="st0" d="M967.5,1059.4c0.1,3-2.6,5.2-5.3,5.6c-0.4,0.1-0.8,0.1-1.3,0.1c-2,0-3.9-0.7-5.5-1.3
						c-8.5-3.4-16.5-8.2-23.3-14.2c-0.1,0.7-0.2,1.5-0.3,2.2c-0.1,0.8-0.8,1.5-1.6,1.4l-9.8-0.3c-0.8,0-2.1-0.1-3.1-0.8
						c-1.8-1.2-2.2-3.6-1.2-6.5l0.1-0.2c0.4-1.2,0.9-2.6,0.5-3.3c-0.3-0.5-0.3-1.2,0-1.7h0c0.1-0.2,0.3-0.4,0.5-0.5
						c0.7-0.4,1.7-0.2,2.2,0.5c0,0,0,0,0,0c1.2,2,0.4,4.3-0.2,6l-0.1,0.2c-0.5,1.3-0.5,2.5,0,2.8c0.3,0.2,0.9,0.2,1.4,0.2l8.3,0.3
						c0-0.4,0.1-0.8,0.2-1.2c0.1-0.9,0.2-1.8,0.3-2.6c0.1-0.6,0.5-1.1,1-1.4c0.6-0.2,1.2-0.1,1.7,0.3c7.1,6.7,15.6,12.1,24.6,15.7
						c1.6,0.6,3.5,1.3,5.1,1c1.2-0.2,2.6-1.2,2.6-2.4c0-0.8-0.6-1.7-1.2-2.5c-6-8.2-14.7-14.1-24.5-16.7c-0.2-0.1-0.4-0.2-0.6-0.3
						c-0.5-0.4-0.7-1-0.6-1.7c0.2-0.8,1.1-1.4,1.9-1.1c2.5,0.7,4.8,1.5,7.1,2.5c7.5,3.3,14.2,8.6,19.1,15.3
						C966.6,1056.4,967.5,1057.7,967.5,1059.4z"/>
				</g>
			</g>
			<g>
				<g>
					<path class="st1" d="M706.5,468.3c-1.2,1.7-3.6,2.2-6.5,1.2c-1.4-0.5-2.8-1.1-4.2-1.8l1.4,2.2c0.6,1,1.8,2.9,1.1,5
						c-0.6,1.6-2.2,2.6-4.1,2.7H694c-1.4,0-2.6-0.5-3.7-1c-4.1-1.9-7.9-4.4-11.3-7.5c-0.7-0.6-0.7-1.6-0.1-2.3
						c0.6-0.6,1.6-0.7,2.3-0.1c3.1,2.8,6.6,5.2,10.4,6.9c0.8,0.4,1.7,0.7,2.5,0.7c0.5,0,1.1-0.3,1.2-0.6c0.2-0.6-0.5-1.7-0.8-2.2
						l-5-8.1l-0.7-1.1c-0.4-0.7-0.3-1.6,0.4-2.1c0.3-0.2,0.6-0.3,0.9-0.4c0.4,0,0.9,0.2,1.2,0.5c2.7,2.8,6.1,4.9,9.7,6.1
						c1.4,0.4,2.5,0.4,2.9,0c0.2-0.3,0.3-0.9-0.2-2.3c-0.7-2-3.2-4.1-5.4-6c-1.2-1.1-2.4-2.1-3.3-3c-0.6-0.7-0.6-1.7,0.1-2.3
						c0.7-0.6,1.7-0.5,2.2,0.1c0.8,0.9,1.9,1.8,3,2.8c2.5,2.1,5.3,4.6,6.3,7.3C706.9,463.9,707.8,466.4,706.5,468.3z"/>
				</g>
			</g>
			<g>
				<g>
					<path class="st1" d="M728.2,464.2c-0.1,0-0.2,0.1-0.2,0.2c-9.7,12.1-22.2,21.8-36.3,28.3c0,0,0,0-0.1,0
						c-4.9-8.4-9.7-16.8-14.4-25.2c-1-1.7-1.8-3.2-1.5-4.6c0.1-1.1,0.9-1.7,1.4-2.1c1.2-0.8,2.9-1.1,4.4-0.8c2,0.5,4.5,1.3,6.6,2.5
						c0.5,0.4,0.9,0.7,1.4,1l5,8.1c0.3,0.5,1,1.6,0.8,2.2c-0.1,0.3-0.7,0.6-1.2,0.6c-0.8,0-1.7-0.3-2.5-0.7c-3.8-1.7-7.3-4-10.4-6.9
						c-0.7-0.6-1.7-0.6-2.3,0.1c-0.6,0.7-0.6,1.7,0.1,2.3c3.3,3.1,7.1,5.6,11.3,7.5c1.1,0.5,2.3,1,3.7,1h0.2c1.9,0,3.5-1.1,4.1-2.7
						c0.7-2-0.5-4-1.1-5l-1.4-2.2c1.3,0.7,2.7,1.3,4.2,1.8c2.9,0.9,5.2,0.5,6.5-1.2c1.4-1.9,0.4-4.4,0.1-5.2c-1-2.7-3.8-5.1-6.3-7.3
						c-1.1-1-2.2-1.9-3-2.8c-0.6-0.6-1.6-0.7-2.2-0.1c-0.7,0.6-0.7,1.6-0.1,2.3c0.9,1,2.1,2,3.3,3c2.2,1.9,4.7,4,5.4,6
						c0.5,1.4,0.4,2,0.2,2.3c-0.3,0.5-1.5,0.5-2.9,0c-3.7-1.2-7-3.3-9.7-6.1c-0.3-0.3-0.8-0.5-1.2-0.5c0,0-0.1-0.1-0.2-0.1
						c-1.5-1.2-2.9-2.5-3.7-4.2c-1.1-2.1-1.2-5.3,0.7-6.8c1.6-1.2,4-0.9,5.7-0.1c2.1,1,3.8,2.9,5.4,4.7c0.5,0.6,1.4,0.7,2.1,0.2
						c0.6,0.2,1.2,0,1.6-0.5c0.6-0.7,0.5-1.7-0.2-2.2c-5.6-4.6-10.7-9.8-15.2-15.6c-1-1.3-1.9-2.5-2.3-3.9c-0.3-1.1-0.2-2.5,0.7-3.2
						c1.9-1.7,5.7,0.8,6.8,1.6c7.5,5.4,13.1,10.1,17.8,14.7c3.5,3.5,7,7,10.5,10.6c-2.6-0.3-5.2-0.6-7.9-0.4
						c-0.9,0.1-3.6,0.2-4.8,2.4c-0.8,1.4-0.6,3.4,0.5,4.9c0.9,1.1,2.1,1.8,3.2,2.4c3.6,1.8,7.5,3,11.5,3.5c0.1,0,0.1,0,0.2,0
						c0.8,0,1.5-0.6,1.6-1.4c0.1-0.9-0.5-1.7-1.4-1.8c-3.6-0.4-7.2-1.5-10.4-3.1c-0.8-0.4-1.6-0.9-2.1-1.5c-0.3-0.5-0.5-1.1-0.3-1.4
						c0.2-0.4,1-0.7,2.2-0.7c2.9-0.2,6,0.2,8.9,0.5c0.6,0.1,1.1-0.2,1.5-0.6C724.2,459.9,726.3,462.1,728.2,464.2z"/>
				</g>
				<g>
					<path class="st0" d="M723.9,466.4c-0.1,0.8-0.8,1.4-1.6,1.4c-0.1,0-0.1,0-0.2,0c-4-0.5-7.9-1.7-11.5-3.5
						c-1.2-0.6-2.3-1.3-3.2-2.4c-1.1-1.5-1.3-3.4-0.5-4.9c1.2-2.1,3.9-2.3,4.8-2.4c2.7-0.2,5.3,0.1,7.9,0.4c0.5,0,1,0.1,1.5,0.2
						c0.9,0.1,1.5,0.9,1.4,1.8c0,0.3-0.1,0.6-0.3,0.8c-0.3,0.4-0.9,0.7-1.5,0.6c-2.9-0.4-5.9-0.7-8.9-0.5c-1.2,0.1-2,0.3-2.2,0.7
						c-0.2,0.3,0,0.9,0.3,1.4c0.5,0.6,1.3,1.1,2.1,1.5c3.3,1.6,6.8,2.7,10.4,3.1C723.3,464.7,724,465.5,723.9,466.4z"/>
				</g>
			</g>
			<g>
				<g>
					<path class="st0" d="M876.4,582.1c-6.6,34.1-11.1,69-13.4,103.6c-0.1,0.8-0.8,1.5-1.6,1.5h-0.1c-0.9-0.1-1.5-0.8-1.5-1.7
						c2.3-34.8,6.8-69.8,13.5-104c0.2-0.9,1-1.4,1.9-1.3C876,580.4,876.5,581.3,876.4,582.1z"/>
				</g>
			</g>
			<g>
				<g>
					<path class="st0" d="M900.1,599.9l-8.7,64.4c-0.1,0.8-0.8,1.4-1.6,1.4c-0.1,0-0.1,0-0.2,0c-0.9-0.1-1.5-0.9-1.4-1.8l8.7-64.4
						c0.1-0.9,0.9-1.5,1.8-1.4C899.6,598.2,900.2,599,900.1,599.9z"/>
				</g>
			</g>
			<g>
				<g>
					<path class="st0" d="M919.4,613.7l-5.2,82.9c-0.1,0.8-0.8,1.5-1.6,1.5c0,0-0.1,0-0.1,0c-0.9,0-1.5-0.8-1.5-1.7l5.2-82.9
						c0-0.9,0.8-1.5,1.7-1.5C918.8,612.1,919.5,612.9,919.4,613.7z"/>
				</g>
			</g>
			<g>
				<g>
					<path class="st1" d="M948.6,524.5c-7.5,11.3-14.8,22.8-21.8,34.5c0,0.1-0.1,0.3-0.2,0.4c-5.7,9.4-11.3,19-16.6,28.5
						c-0.3,0.5-0.8,0.8-1.4,0.8h-0.2c-0.6-0.1-1.1-0.5-1.4-1.1c-7.1-21.4-13.5-43.3-19-65.2c-21.2,59.6-38.3,120.9-50.8,183
						c36.6,9.3,74.2,12.2,111.8,8.6C941.6,652.5,941.5,589,948.6,524.5z M863,685.8c-0.1,0.8-0.8,1.5-1.6,1.5h-0.1
						c-0.9-0.1-1.5-0.8-1.5-1.7c2.3-34.8,6.8-69.8,13.5-104c0.2-0.9,1-1.4,1.9-1.3c0.9,0.2,1.4,1,1.3,1.9
						C869.8,616.2,865.3,651.1,863,685.8z M891.4,664.2c-0.1,0.8-0.8,1.4-1.6,1.4c-0.1,0-0.1,0-0.2,0c-0.9-0.1-1.5-0.9-1.4-1.8
						l8.7-64.4c0.1-0.9,0.9-1.5,1.8-1.4c0.9,0.1,1.5,0.9,1.4,1.8L891.4,664.2z M914.2,696.6c-0.1,0.8-0.8,1.5-1.6,1.5
						c0,0-0.1,0-0.1,0c-0.9,0-1.5-0.8-1.5-1.7l5.2-82.9c0-0.9,0.8-1.5,1.7-1.5c0.9,0.1,1.5,0.8,1.5,1.7L914.2,696.6z M930.3,666.9
						c-0.1,0.8-0.8,1.5-1.6,1.5c0,0-0.1,0-0.1,0c-0.9-0.1-1.5-0.8-1.5-1.7l6.8-82.1c0.1-0.9,0.8-1.5,1.7-1.4
						c0.9,0.1,1.5,0.8,1.4,1.7L930.3,666.9z"/>
				</g>
				<g>
					<path class="st0" d="M937.1,584.8l-6.8,82.1c-0.1,0.8-0.8,1.5-1.6,1.5c0,0-0.1,0-0.1,0c-0.9-0.1-1.5-0.8-1.5-1.7l6.8-82.1
						c0.1-0.9,0.8-1.5,1.7-1.4C936.5,583.1,937.1,583.9,937.1,584.8z"/>
				</g>
			</g>
			<g>
				<path class="st0" d="M689.5,479c-1,0-2.2-0.3-3.4-0.8c-4.6-2.1-8.3-5.9-10.2-10.6c-0.3-0.8,0.1-1.7,0.9-2.1
					c0.8-0.3,1.7,0.1,2.1,0.9c1.6,3.9,4.7,7.2,8.6,8.9c0.6,0.3,2.2,0.9,3,0.3c0.9-0.7,0.5-2.6,0.4-3.4c-0.9-3.8-2.7-7.5-5.2-10.5
					c-0.5-0.7-0.5-1.6,0.2-2.2c0.6-0.6,1.6-0.5,2.2,0.1c1.6,1.7,3.4,3,5.4,4.5c1,0.7,1.9,1.4,2.8,2.2c0.8,0.6,1.7,1.3,2.4,1.2
					c0.5-0.1,0.9-0.7,1.1-1.4c0.2-0.9-0.1-2-0.4-2.9c-1.4-4.3-3.7-8.3-6.8-11.6c-0.6-0.6-0.6-1.6,0-2.3s1.6-0.6,2.3,0
					c3.5,3.6,6.1,8.1,7.6,12.8c0.4,1.3,0.8,2.9,0.5,4.4c-0.4,2-1.8,3.6-3.5,4c-2,0.4-3.7-0.7-5.1-1.8c-0.5-0.4-1-0.8-1.5-1.2
					c0.5,1.3,0.9,2.6,1.2,4c0.9,3.8-0.4,5.7-1.5,6.6C691.5,478.7,690.5,479,689.5,479z"/>
			</g>
			<g>
				<g>
					<path class="st1" d="M790.4,539.8c-0.3,0.2-0.6,0.3-0.9,0.3c-0.5,0-1-0.3-1.3-0.7c0-0.1-0.1-0.1-0.1-0.2
						c-15-22.2-31.7-43.6-50-64.1c-0.7-0.8-1.4-1.5-2.1-2.3c-1.8-2.1-3.7-4.1-5.6-6.1c-0.7-0.8-1.4-1.6-2.2-2.3
						c-2-2.2-4-4.3-6.1-6.4c-0.8-0.9-1.7-1.8-2.6-2.7c-3.4-3.6-6.9-7.1-10.5-10.6c-4.6-4.6-10.3-9.3-17.8-14.7
						c-1.1-0.8-4.9-3.3-6.8-1.6c-0.8,0.8-0.9,2.2-0.7,3.2c0.4,1.4,1.3,2.7,2.3,3.9c4.5,5.7,9.6,11,15.2,15.6
						c0.7,0.6,0.8,1.6,0.2,2.2c-0.4,0.5-1.1,0.7-1.6,0.5c-0.2-0.1-0.4-0.2-0.6-0.3c-3.2-2.6-6.3-5.5-9.2-8.5
						c-2.3-2.4-4.5-4.9-6.5-7.6c-1.2-1.5-2.3-3.1-2.9-5.1c-0.7-2.4,0-5,1.6-6.4c2.5-2.3,6.4-1.8,10.8,1.4c7.6,5.5,13.4,10.3,18.1,15
						c29.9,29.5,56.6,61.6,79.4,95.3c0,0.1,0.1,0.1,0.1,0.2C791.2,538.5,791,539.3,790.4,539.8z"/>
				</g>
			</g>
		</g>
		<g>
			<path class="st0" d="M824.5,1006.3c-0.9,0-1.6-0.7-1.6-1.5c-2.7-80.2-0.3-161.3,7.1-241.2c0.1-0.9,0.8-1.5,1.7-1.4
				c0.9,0.1,1.5,0.9,1.4,1.7c-7.4,79.7-9.8,160.7-7.1,240.8C826.1,1005.6,825.4,1006.3,824.5,1006.3
				C824.5,1006.3,824.5,1006.3,824.5,1006.3z"/>
		</g>
		<g>
			<path class="st0" d="M931.2,1004.2c-0.9,0-1.6-0.7-1.6-1.6l-2.9-221.9c0-0.9,0.7-1.6,1.6-1.6c0.8,0,1.6,0.7,1.6,1.6l2.9,221.9
				C932.8,1003.5,932.1,1004.2,931.2,1004.2C931.2,1004.2,931.2,1004.2,931.2,1004.2z"/>
		</g>
		<g>
			<path class="st1" d="M811.4,691.3c-0.7,0-1.3-0.4-1.5-1.1c-0.3-0.8,0.2-1.7,1.1-2c8.4-2.5,15.7-9.2,18.9-17.4
				c0.3-0.8,1.2-1.2,2.1-0.9c0.8,0.3,1.2,1.2,0.9,2.1c-3.6,9.1-11.6,16.5-20.9,19.3C811.7,691.2,811.5,691.3,811.4,691.3z"/>
		</g>
		<g>
			<path class="st0" d="M1138.2,554.2c-0.4,0-0.9-0.2-1.2-0.5c-0.6-0.6-0.5-1.7,0.1-2.2c2-1.9,2.6-5.2,1.2-7.6
				c-0.4-0.8-0.2-1.7,0.6-2.2c0.8-0.4,1.7-0.2,2.2,0.6c2.1,3.7,1.3,8.7-1.9,11.5C1139,554,1138.6,554.2,1138.2,554.2z"/>
		</g>
		<g>
			<path class="st1" d="M981.2,700.6c-0.2,0-0.4,0-0.6-0.1c-9-3.9-16.6-11.1-21-19.8c-0.4-0.8-0.1-1.7,0.7-2.1
				c0.8-0.4,1.7-0.1,2.1,0.7c4.1,8.1,11.2,14.7,19.5,18.3c0.8,0.3,1.2,1.3,0.8,2.1C982.4,700.2,981.8,700.6,981.2,700.6z"/>
		</g>
		<g>
			<path class="st0" d="M1143.7,558.8c-0.5,0-0.9-0.2-1.2-0.6c-0.5-0.7-0.4-1.7,0.3-2.2c2.4-1.9,5.8-2.5,8.7-1.6
				c0.8,0.3,1.3,1.2,1,2c-0.3,0.8-1.2,1.3-2,1c-1.9-0.6-4.2-0.2-5.8,1.1C1144.4,558.7,1144,558.8,1143.7,558.8z"/>
		</g>
		<g>
			<path class="st0" d="M705.9,479.3c-0.5,0-1-0.2-1.3-0.7c-2.4-3.2-1.9-8.1,1.1-10.8c0.6-0.6,1.7-0.6,2.2,0.1
				c0.6,0.6,0.6,1.7-0.1,2.2c-1.7,1.6-2,4.7-0.6,6.6c0.5,0.7,0.4,1.7-0.3,2.2C706.6,479.2,706.3,479.3,705.9,479.3z"/>
		</g>
		<g>
			<path class="st0" d="M698.8,485.7c-0.3,0-0.7-0.1-0.9-0.3c-2-1.5-4.9-1.7-7.1-0.7c-0.8,0.4-1.7,0-2.1-0.8c-0.4-0.8,0-1.7,0.8-2.1
				c3.3-1.6,7.4-1.2,10.4,1c0.7,0.5,0.9,1.5,0.3,2.2C699.8,485.5,699.3,485.7,698.8,485.7z"/>
		</g>
		<g>
			<path class="st1" d="M799.9,1062.6c-0.1,0-0.2,0-0.3,0c-0.9-0.2-1.4-1-1.2-1.9c0.7-3.6,4.3-6.2,7.9-5.8c0.9,0.1,1.5,0.9,1.4,1.7
				c-0.1,0.9-0.9,1.5-1.7,1.4c-2-0.2-4,1.3-4.4,3.3C801.3,1062.1,800.6,1062.6,799.9,1062.6z"/>
		</g>
		<g>
			<path class="st1" d="M958.8,1060.4c-0.8,0-1.5-0.6-1.6-1.4c-0.4-2.8-2.5-5.2-5.2-6c-0.8-0.2-1.4-1.1-1.1-2c0.2-0.8,1.1-1.3,2-1.1
				c3.9,1.1,7,4.6,7.5,8.6c0.1,0.9-0.5,1.7-1.4,1.8C959,1060.4,958.9,1060.4,958.8,1060.4z"/>
		</g>
	</g>
	<g>
		<path class="st1" d="M763.5,597c-0.3,0-0.6-0.1-0.9-0.3c-19.5-14-43.5-53.7-44.5-55.4c-0.4-0.7-0.2-1.6,0.5-2.1
			c0.7-0.4,1.6-0.2,2.1,0.5c0.2,0.4,24.6,40.9,43.7,54.5c0.7,0.5,0.8,1.4,0.3,2.1C764.4,596.8,764,597,763.5,597z"/>
	</g>
</g>
</svg>
