<svg aria-hidden="true" style="position: absolute; width: 0; height: 0; overflow: hidden;" version="1.1" xmlns="http://www.w3.org/2000/svg" xmlns:xlink="http://www.w3.org/1999/xlink">
	<defs>
		<symbol id="animation" viewBox="0 0 24 24">
			<path stroke="none" d="M0 0h24v24H0z" fill="none"/>
			<circle cx="12" cy="12" r="1" />
			<circle cx="12" cy="12" r="5" />
			<line x1="15.9" y1="20.11" x2="15.9" y2="20.12" />
			<line x1="19.04" y1="17.61" x2="19.04" y2="17.62" />
			<line x1="20.77" y1="14" x2="20.77" y2="14.01" />
			<line x1="20.77" y1="10" x2="20.77" y2="10.01" />
			<line x1="19.04" y1="6.39" x2="19.04" y2="6.4" />
			<line x1="15.9" y1="3.89" x2="15.9" y2="3.9" />
			<line x1="12" y1="3" x2="12" y2="3.01" />
			<line x1="8.1" y1="3.89" x2="8.1" y2="3.9" />
			<line x1="4.96" y1="6.39" x2="4.96" y2="6.4" />
			<line x1="3.23" y1="10" x2="3.23" y2="10.01" />
			<line x1="3.23" y1="14" x2="3.23" y2="14.01" />
			<line x1="4.96" y1="17.61" x2="4.96" y2="17.62" />
			<line x1="8.1" y1="20.11" x2="8.1" y2="20.12" />
			<line x1="12" y1="21" x2="12" y2="21.01" />
		</symbol>
		<symbol id="boxshadow" viewBox="0 0 24 24">
			<path stroke="none" d="M0 0h24v24H0z" fill="none"/>
			<polyline points="12 3 20 7.5 20 16.5 12 21 4 16.5 4 7.5 12 3" />
			<line x1="12" y1="12" x2="20" y2="7.5" />
			<line x1="12" y1="12" x2="12" y2="21" />
			<line x1="12" y1="12" x2="4" y2="7.5" />
		</symbol>
		<symbol id="clippath" viewBox="0 0 24 24">
		  <path stroke="none" d="M0 0h24v24H0z" fill="none"/>
			<rect x="3" y="3" width="4" height="4" rx="1" />
			<rect x="17" y="3" width="4" height="4" rx="1" />
			<rect x="17" y="17" width="4" height="4" rx="1" />
			<rect x="3" y="17" width="4" height="4" rx="1" />
			<line x1="5" y1="7" x2="5" y2="17" />
			<line x1="19" y1="7" x2="19" y2="17" />
			<line x1="7" y1="5" x2="17" y2="5" />
			<line x1="7" y1="19" x2="17" y2="19" />
		</symbol>
		<symbol id="color" viewBox="0 0 24 24">
			<path stroke="none" d="M0 0h24v24H0z" fill="none"/>
			<path d="M12 21a9 9 0 1 1 0 -18a9 8 0 0 1 9 8a4.5 4 0 0 1 -4.5 4h-2.5a2 2 0 0 0 -1 3.75a1.3 1.3 0 0 1 -1 2.25" />
			<circle cx="7.5" cy="10.5" r=".5" fill="currentColor" />
			<circle cx="12" cy="7.5" r=".5" fill="currentColor" />
			<circle cx="16.5" cy="10.5" r=".5" fill="currentColor" />
		</symbol>
		<symbol id="dropshadow" viewBox="0 0 24 24">
			<path stroke="none" d="M0 0h24v24H0z" fill="none"/>
			<path d="M12 3l5 5a7 7 0 1 1 -10 0l5 -5" />
		</symbol>
		<symbol id="textshadow" viewBox="0 0 24 24">
			<path stroke="none" d="M0 0h24v24H0z" fill="none"/>
			<circle cx="18" cy="16" r="3" />
			<line x1="21" y1="13" x2="21" y2="19" />
			<path d="M3 19v-10a4 4 0 0 1 4 -4a4 4 0 0 1 4 4v10" />
			<line x1="3" y1="13" x2="11" y2="13" />
		</symbol>
		<symbol id="halftone" viewBox="0 0 24 24">
			<path stroke="none" d="M0 0h24v24H0z" fill="none"/>
			<circle cx="5" cy="5" r="1" />
			<circle cx="12" cy="5" r="1" />
			<circle cx="19" cy="5" r="1" />
			<circle cx="5" cy="12" r="1" />
			<circle cx="12" cy="12" r="1" />
			<circle cx="19" cy="12" r="1" />
			<circle cx="5" cy="19" r="1" />
			<circle cx="12" cy="19" r="1" />
			<circle cx="19" cy="19" r="1" />
		</symbol>
		<symbol id="filter" viewBox="0 0 24 24">
			<path stroke="none" d="M0 0h24v24H0z" fill="none"/>
			<circle cx="6" cy="10" r="2" />
			<line x1="6" y1="4" x2="6" y2="8" />
			<line x1="6" y1="12" x2="6" y2="20" />
			<circle cx="12" cy="16" r="2" />
			<line x1="12" y1="4" x2="12" y2="14" />
			<line x1="12" y1="18" x2="12" y2="20" />
			<circle cx="18" cy="7" r="2" />
			<line x1="18" y1="4" x2="18" y2="5" />
			<line x1="18" y1="9" x2="18" y2="20" />
		</symbol>
		<symbol id="responsive" viewBox="0 0 24 24">
			<path stroke="none" d="M0 0h24v24H0z" fill="none"/>
			<path d="M11 19h-6a2 2 0 0 1 -2 -2v-10a2 2 0 0 1 2 -2h14a2 2 0 0 1 2 2v4" />
			<rect x="14" y="14" width="7" height="5" rx="1" />
			<line x1="7" y1="9" x2="11" y2="13" />
			<path d="M7 12v-3h3" />
		</symbol>
		<symbol id="svgurl" viewBox="0 0 24 24">
			<path stroke="none" d="M0 0h24v24H0z" fill="none"/>
			<line x1="15" y1="8" x2="15.01" y2="8" />
			<rect x="4" y="4" width="16" height="16" rx="3" />
			<path d="M4 15l4 -4a3 5 0 0 1 3 0l5 5" />
			<path d="M14 14l1 -1a3 5 0 0 1 3 0l2 2" />
		</symbol>
		<symbol id="font" viewBox="0 0 24 24">
			<path stroke="none" d="M0 0h24v24H0z" fill="none"/>
			<line x1="4" y1="20" x2="7" y2="20" />
			<line x1="14" y1="20" x2="21" y2="20" />
			<line x1="6.9" y1="15" x2="13.8" y2="15" />
			<line x1="10.2" y1="6.3" x2="16" y2="20" />
			<polyline points="5 20 11 4 13 4 20 20" />
		</symbol>
		<symbol id="theme" viewBox="0 0 24 24">
			<path stroke="none" d="M0 0h24v24H0z" fill="none"/>
			<rect x="4" y="4" width="6" height="6" rx="1" />
			<rect x="4" y="14" width="6" height="6" rx="1" />
			<rect x="14" y="14" width="6" height="6" rx="1" />
			<line x1="14" y1="7" x2="20" y2="7" />
			<line x1="17" y1="4" x2="17" y2="10" />
		</symbol>
		<symbol id="transform" viewBox="0 0 24 24">
			<path stroke="none" d="M0 0h24v24H0z" fill="none"/>
			<path d="M16.3 5h.7a2 2 0 0 1 2 2v10a2 2 0 0 1 -2 2h-10a2 2 0 0 1 -2 -2v-10a2 2 0 0 1 2 -2h5l-2.82 -2.82m0 5.64l2.82 -2.82" transform="rotate(-45 12 12)" />
		</symbol>
		<symbol id="transition" viewBox="0 0 24 24">
			<path stroke="none" d="M0 0h24v24H0z" fill="none"/>
			<rect x="3" y="3" width="6" height="6" rx="1" />
			<rect x="15" y="15" width="6" height="6" rx="1" />
			<path d="M21 11v-3a2 2 0 0 0 -2 -2h-6l3 3m0 -6l-3 3" />
			<path d="M3 13v3a2 2 0 0 0 2 2h6l-3 -3m0 6l3 -3" />
		</symbol>
		<symbol id="unit" viewBox="0 0 24 24">
			<path stroke="none" d="M0 0h24v24H0z" fill="none"/>
			<line x1="12" y1="12" x2="12" y2="12.01" />
			<path d="M12 2a4 10 0 0 0 -4 10a4 10 0 0 0 4 10a4 10 0 0 0 4 -10a4 10 0 0 0 -4 -10" transform="rotate(45 12 12)" />
			<path d="M12 2a4 10 0 0 0 -4 10a4 10 0 0 0 4 10a4 10 0 0 0 4 -10a4 10 0 0 0 -4 -10" transform="rotate(-45 12 12)" />
		</symbol>
	</defs>
</svg>